<?xml version="1.0" encoding="UTF-8" ?>
<svg version="1.1" width="48" height="48" xmlns="http://www.w3.org/2000/svg" shape-rendering="crispEdges">
<rect x="0" y="0" width="48" height="4" fill="#663931" />
<rect x="0" y="4" width="4" height="44" fill="#663931" />
<rect x="4" y="4" width="40" height="1" fill="#37946E" />
<rect x="44" y="4" width="4" height="44" fill="#663931" />
<rect x="4" y="5" width="39" height="1" fill="#37946E" />
<rect x="43" y="5" width="1" height="3" fill="#4B692F" />
<rect x="4" y="6" width="16" height="1" fill="#37946E" />
<rect x="20" y="6" width="2" height="1" fill="#4B692F" />
<rect x="22" y="6" width="13" height="1" fill="#37946E" />
<rect x="35" y="6" width="4" height="1" fill="#4B692F" />
<rect x="39" y="6" width="4" height="1" fill="#37946E" />
<rect x="4" y="7" width="7" height="1" fill="#37946E" />
<rect x="11" y="7" width="1" height="1" fill="#4B692F" />
<rect x="12" y="7" width="8" height="2" fill="#37946E" />
<rect x="20" y="7" width="1" height="1" fill="#4B692F" />
<rect x="21" y="7" width="5" height="4" fill="#37946E" />
<rect x="26" y="7" width="2" height="1" fill="#4B692F" />
<rect x="28" y="7" width="13" height="2" fill="#37946E" />
<rect x="41" y="7" width="2" height="1" fill="#FBF236" />
<rect x="4" y="8" width="3" height="6" fill="#37946E" />
<rect x="7" y="8" width="1" height="1" fill="#4B692F" />
<rect x="8" y="8" width="4" height="3" fill="#37946E" />
<rect x="20" y="8" width="1" height="1" fill="#37946E" />
<rect x="26" y="8" width="1" height="5" fill="#37946E" />
<rect x="27" y="8" width="1" height="1" fill="#FBF236" />
<rect x="41" y="8" width="1" height="13" fill="#37946E" />
<rect x="42" y="8" width="1" height="1" fill="#4B692F" />
<rect x="43" y="8" width="1" height="36" fill="#37946E" />
<rect x="7" y="9" width="1" height="2" fill="#37946E" />
<rect x="12" y="9" width="7" height="2" fill="#37946E" />
<rect x="19" y="9" width="2" height="1" fill="#4B692F" />
<rect x="27" y="9" width="2" height="1" fill="#4B692F" />
<rect x="29" y="9" width="8" height="3" fill="#37946E" />
<rect x="37" y="9" width="2" height="1" fill="#4B692F" />
<rect x="39" y="9" width="2" height="1" fill="#37946E" />
<rect x="42" y="9" width="1" height="35" fill="#37946E" />
<rect x="19" y="10" width="1" height="2" fill="#4B692F" />
<rect x="20" y="10" width="1" height="4" fill="#37946E" />
<rect x="27" y="10" width="2" height="3" fill="#37946E" />
<rect x="37" y="10" width="1" height="2" fill="#37946E" />
<rect x="38" y="10" width="2" height="1" fill="#4B692F" />
<rect x="40" y="10" width="1" height="10" fill="#37946E" />
<rect x="7" y="11" width="1" height="1" fill="#AC3232" />
<rect x="8" y="11" width="1" height="1" fill="#4B692F" />
<rect x="9" y="11" width="4" height="2" fill="#37946E" />
<rect x="13" y="11" width="1" height="2" fill="#4B692F" />
<rect x="14" y="11" width="5" height="28" fill="#37946E" />
<rect x="21" y="11" width="2" height="1" fill="#37946E" />
<rect x="23" y="11" width="2" height="1" fill="#4B692F" />
<rect x="25" y="11" width="1" height="11" fill="#37946E" />
<rect x="38" y="11" width="2" height="1" fill="#37946E" />
<rect x="7" y="12" width="2" height="8" fill="#37946E" />
<rect x="19" y="12" width="1" height="1" fill="#37946E" />
<rect x="21" y="12" width="1" height="26" fill="#37946E" />
<rect x="22" y="12" width="1" height="1" fill="#4B692F" />
<rect x="23" y="12" width="1" height="1" fill="#AC3232" />
<rect x="24" y="12" width="1" height="10" fill="#37946E" />
<rect x="29" y="12" width="7" height="1" fill="#37946E" />
<rect x="36" y="12" width="4" height="1" fill="#4B692F" />
<rect x="9" y="13" width="2" height="1" fill="#4B692F" />
<rect x="11" y="13" width="3" height="10" fill="#37946E" />
<rect x="19" y="13" width="1" height="2" fill="#4B692F" />
<rect x="22" y="13" width="2" height="6" fill="#37946E" />
<rect x="26" y="13" width="4" height="1" fill="#4B692F" />
<rect x="30" y="13" width="3" height="16" fill="#37946E" />
<rect x="33" y="13" width="1" height="2" fill="#4B692F" />
<rect x="34" y="13" width="6" height="6" fill="#37946E" />
<rect x="4" y="14" width="1" height="30" fill="#37946E" />
<rect x="5" y="14" width="1" height="1" fill="#4B692F" />
<rect x="6" y="14" width="1" height="30" fill="#37946E" />
<rect x="9" y="14" width="2" height="7" fill="#37946E" />
<rect x="20" y="14" width="1" height="1" fill="#4B692F" />
<rect x="26" y="14" width="4" height="4" fill="#37946E" />
<rect x="5" y="15" width="1" height="29" fill="#37946E" />
<rect x="19" y="15" width="2" height="7" fill="#37946E" />
<rect x="33" y="15" width="1" height="3" fill="#37946E" />
<rect x="26" y="18" width="2" height="3" fill="#37946E" />
<rect x="28" y="18" width="1" height="1" fill="#4B692F" />
<rect x="29" y="18" width="1" height="12" fill="#37946E" />
<rect x="33" y="18" width="1" height="2" fill="#4B692F" />
<rect x="22" y="19" width="1" height="1" fill="#4B692F" />
<rect x="23" y="19" width="1" height="16" fill="#37946E" />
<rect x="28" y="19" width="1" height="6" fill="#37946E" />
<rect x="34" y="19" width="4" height="3" fill="#37946E" />
<rect x="38" y="19" width="2" height="1" fill="#4B692F" />
<rect x="7" y="20" width="2" height="1" fill="#4B692F" />
<rect x="22" y="20" width="1" height="18" fill="#37946E" />
<rect x="33" y="20" width="1" height="21" fill="#37946E" />
<rect x="38" y="20" width="1" height="8" fill="#37946E" />
<rect x="39" y="20" width="2" height="1" fill="#4B692F" />
<rect x="7" y="21" width="1" height="4" fill="#37946E" />
<rect x="8" y="21" width="2" height="1" fill="#4B692F" />
<rect x="10" y="21" width="1" height="1" fill="#37946E" />
<rect x="26" y="21" width="1" height="1" fill="#FBF236" />
<rect x="27" y="21" width="1" height="1" fill="#4B692F" />
<rect x="39" y="21" width="1" height="13" fill="#37946E" />
<rect x="40" y="21" width="1" height="1" fill="#AC3232" />
<rect x="41" y="21" width="1" height="2" fill="#4B692F" />
<rect x="8" y="22" width="1" height="20" fill="#37946E" />
<rect x="9" y="22" width="1" height="1" fill="#FBF236" />
<rect x="10" y="22" width="1" height="2" fill="#4B692F" />
<rect x="19" y="22" width="1" height="2" fill="#4B692F" />
<rect x="20" y="22" width="1" height="1" fill="#37946E" />
<rect x="24" y="22" width="3" height="1" fill="#4B692F" />
<rect x="27" y="22" width="1" height="4" fill="#37946E" />
<rect x="34" y="22" width="3" height="1" fill="#37946E" />
<rect x="37" y="22" width="1" height="2" fill="#4B692F" />
<rect x="40" y="22" width="1" height="3" fill="#37946E" />
<rect x="9" y="23" width="1" height="15" fill="#37946E" />
<rect x="11" y="23" width="1" height="1" fill="#4B692F" />
<rect x="12" y="23" width="2" height="6" fill="#37946E" />
<rect x="20" y="23" width="1" height="1" fill="#4B692F" />
<rect x="24" y="23" width="3" height="3" fill="#37946E" />
<rect x="34" y="23" width="2" height="5" fill="#37946E" />
<rect x="36" y="23" width="1" height="2" fill="#4B692F" />
<rect x="41" y="23" width="1" height="3" fill="#37946E" />
<rect x="10" y="24" width="2" height="5" fill="#37946E" />
<rect x="19" y="24" width="2" height="3" fill="#37946E" />
<rect x="37" y="24" width="1" height="5" fill="#37946E" />
<rect x="7" y="25" width="1" height="3" fill="#4B692F" />
<rect x="28" y="25" width="1" height="2" fill="#4B692F" />
<rect x="36" y="25" width="1" height="3" fill="#37946E" />
<rect x="40" y="25" width="1" height="2" fill="#4B692F" />
<rect x="24" y="26" width="2" height="9" fill="#37946E" />
<rect x="26" y="26" width="2" height="1" fill="#4B692F" />
<rect x="41" y="26" width="1" height="2" fill="#4B692F" />
<rect x="19" y="27" width="1" height="17" fill="#37946E" />
<rect x="20" y="27" width="1" height="1" fill="#4B692F" />
<rect x="26" y="27" width="3" height="8" fill="#37946E" />
<rect x="40" y="27" width="1" height="7" fill="#37946E" />
<rect x="7" y="28" width="1" height="16" fill="#37946E" />
<rect x="20" y="28" width="1" height="1" fill="#AC3232" />
<rect x="34" y="28" width="1" height="16" fill="#37946E" />
<rect x="35" y="28" width="2" height="1" fill="#4B692F" />
<rect x="38" y="28" width="1" height="1" fill="#4B692F" />
<rect x="41" y="28" width="1" height="6" fill="#37946E" />
<rect x="10" y="29" width="1" height="8" fill="#37946E" />
<rect x="11" y="29" width="2" height="1" fill="#4B692F" />
<rect x="13" y="29" width="1" height="11" fill="#37946E" />
<rect x="20" y="29" width="1" height="15" fill="#37946E" />
<rect x="30" y="29" width="1" height="2" fill="#4B692F" />
<rect x="31" y="29" width="2" height="15" fill="#37946E" />
<rect x="35" y="29" width="2" height="10" fill="#37946E" />
<rect x="37" y="29" width="1" height="1" fill="#4B692F" />
<rect x="38" y="29" width="1" height="1" fill="#AC3232" />
<rect x="11" y="30" width="2" height="11" fill="#37946E" />
<rect x="29" y="30" width="1" height="1" fill="#4B692F" />
<rect x="37" y="30" width="2" height="4" fill="#37946E" />
<rect x="29" y="31" width="2" height="13" fill="#37946E" />
<rect x="37" y="34" width="1" height="2" fill="#37946E" />
<rect x="38" y="34" width="4" height="1" fill="#4B692F" />
<rect x="23" y="35" width="5" height="1" fill="#4B692F" />
<rect x="28" y="35" width="1" height="9" fill="#37946E" />
<rect x="38" y="35" width="4" height="2" fill="#37946E" />
<rect x="23" y="36" width="4" height="2" fill="#37946E" />
<rect x="27" y="36" width="1" height="1" fill="#4B692F" />
<rect x="37" y="36" width="1" height="2" fill="#4B692F" />
<rect x="10" y="37" width="1" height="2" fill="#4B692F" />
<rect x="27" y="37" width="1" height="7" fill="#37946E" />
<rect x="38" y="37" width="1" height="1" fill="#4B692F" />
<rect x="39" y="37" width="3" height="2" fill="#37946E" />
<rect x="9" y="38" width="1" height="2" fill="#4B692F" />
<rect x="21" y="38" width="2" height="1" fill="#4B692F" />
<rect x="23" y="38" width="2" height="1" fill="#37946E" />
<rect x="25" y="38" width="2" height="1" fill="#4B692F" />
<rect x="37" y="38" width="1" height="6" fill="#37946E" />
<rect x="38" y="38" width="1" height="1" fill="#AC3232" />
<rect x="10" y="39" width="1" height="5" fill="#37946E" />
<rect x="14" y="39" width="1" height="2" fill="#4B692F" />
<rect x="15" y="39" width="4" height="5" fill="#37946E" />
<rect x="21" y="39" width="1" height="5" fill="#37946E" />
<rect x="22" y="39" width="2" height="1" fill="#4B692F" />
<rect x="24" y="39" width="1" height="1" fill="#FBF236" />
<rect x="25" y="39" width="1" height="1" fill="#4B692F" />
<rect x="26" y="39" width="1" height="5" fill="#37946E" />
<rect x="35" y="39" width="1" height="1" fill="#4B692F" />
<rect x="36" y="39" width="1" height="5" fill="#37946E" />
<rect x="38" y="39" width="1" height="1" fill="#4B692F" />
<rect x="39" y="39" width="2" height="3" fill="#37946E" />
<rect x="41" y="39" width="1" height="1" fill="#4B692F" />
<rect x="9" y="40" width="1" height="2" fill="#37946E" />
<rect x="13" y="40" width="1" height="1" fill="#AC3232" />
<rect x="22" y="40" width="4" height="4" fill="#37946E" />
<rect x="35" y="40" width="1" height="4" fill="#37946E" />
<rect x="38" y="40" width="1" height="4" fill="#37946E" />
<rect x="41" y="40" width="1" height="4" fill="#37946E" />
<rect x="11" y="41" width="1" height="3" fill="#37946E" />
<rect x="12" y="41" width="2" height="1" fill="#4B692F" />
<rect x="14" y="41" width="1" height="3" fill="#37946E" />
<rect x="33" y="41" width="1" height="2" fill="#4B692F" />
<rect x="8" y="42" width="2" height="1" fill="#4B692F" />
<rect x="12" y="42" width="2" height="2" fill="#37946E" />
<rect x="39" y="42" width="2" height="1" fill="#4B692F" />
<rect x="8" y="43" width="2" height="1" fill="#37946E" />
<rect x="33" y="43" width="1" height="1" fill="#37946E" />
<rect x="39" y="43" width="2" height="1" fill="#37946E" />
<rect x="4" y="44" width="40" height="4" fill="#663931" />
</svg>